HIERARCHY
ROOT Hips
{
	OFFSET 0.000000 0.000000 0.000000
	CHANNELS 6 Xposition Yposition Zposition Zrotation Yrotation Xrotation 
	JOINT LHipJoint
	{
		OFFSET 0.000000 0.000000 0.000000
		CHANNELS 3 Zrotation Yrotation Xrotation
		JOINT LeftUpLeg
		{
			OFFSET 1.363060 -1.794630 0.839290
			CHANNELS 3 Zrotation Yrotation Xrotation
			JOINT LeftLeg
			{
				OFFSET 2.448110 -6.726130 0.000000
				CHANNELS 3 Zrotation Yrotation Xrotation
				JOINT LeftFoot
				{
					OFFSET 2.562200 -7.039590 0.000000
					CHANNELS 3 Zrotation Yrotation Xrotation
					JOINT LeftToeBase
					{
						OFFSET 0.157640 -0.433110 2.322550
						CHANNELS 3 Zrotation Yrotation Xrotation
						End Site
						{
							OFFSET 0.000000 0.000000 0.000000
						}
					}
				}
			}
		}
	}
	JOINT RHipJoint
	{
		OFFSET 0.000000 0.000000 0.000000
		CHANNELS 3 Zrotation Yrotation Xrotation
		JOINT RightUpLeg
		{
			OFFSET -1.305520 -1.794630 0.839290
			CHANNELS 3 Zrotation Yrotation Xrotation
			JOINT RightLeg
			{
				OFFSET -2.542530 -6.985550 0.000000
				CHANNELS 3 Zrotation Yrotation Xrotation
				JOINT RightFoot
				{
					OFFSET -2.568260 -7.056230 0.000000
					CHANNELS 3 Zrotation Yrotation Xrotation
					JOINT RightToeBase
					{
						OFFSET -0.164730 -0.452590 2.363150
						CHANNELS 3 Zrotation Yrotation Xrotation
						End Site
						{
							OFFSET 0.000000 0.000000 0.000000
						}
					}
				}
			}
		}
	}
	JOINT LowerBack
	{
		OFFSET 0.000000 0.000000 0.000000
		CHANNELS 3 Zrotation Yrotation Xrotation
		JOINT Spine
		{
			OFFSET 0.028270 2.035590 -0.193380
			CHANNELS 3 Zrotation Yrotation Xrotation
			JOINT Spine1
			{
				OFFSET 0.056720 2.048850 -0.042750
				CHANNELS 3 Zrotation Yrotation Xrotation
				JOINT Neck
				{
					OFFSET 0.000000 0.000000 0.000000
					CHANNELS 3 Zrotation Yrotation Xrotation
					JOINT Neck1
					{
						OFFSET -0.054170 1.746240 0.172020
						CHANNELS 3 Zrotation Yrotation Xrotation
						JOINT Head
						{
							OFFSET 0.104070 1.761360 -0.123970
							CHANNELS 3 Zrotation Yrotation Xrotation
							End Site
							{
								OFFSET 0.000000 0.000000 0.000000
							}
						}
					}
				}
				JOINT LeftShoulder
				{
					OFFSET 0.000000 0.000000 0.000000
					CHANNELS 3 Zrotation Yrotation Xrotation
					JOINT LeftArm
					{
						OFFSET 3.362410 1.200890 -0.311210
						CHANNELS 3 Zrotation Yrotation Xrotation
						JOINT LeftForeArm
						{
							OFFSET 4.983000 -0.000000 -0.000000
							CHANNELS 3 Zrotation Yrotation Xrotation
							JOINT LeftHand
							{
								OFFSET 3.483560 -0.000000 -0.000000
								CHANNELS 3 Zrotation Yrotation Xrotation
								JOINT LeftFingerBase
								{
									OFFSET 0.000000 0.000000 0.000000
									CHANNELS 3 Zrotation Yrotation Xrotation
									JOINT LeftHandIndex1
									{
										OFFSET 0.715260 -0.000000 -0.000000
										CHANNELS 3 Zrotation Yrotation Xrotation
										End Site
										{
											OFFSET 0.000000 0.000000 0.000000
										}
									}
								}
								JOINT LThumb
								{
									OFFSET 0.000000 0.000000 0.000000
									CHANNELS 3 Zrotation Yrotation Xrotation
									End Site
									{
										OFFSET 0.000000 0.000000 0.000000
									}
								}
							}
						}
					}
				}
				JOINT RightShoulder
				{
					OFFSET 0.000000 0.000000 0.000000
					CHANNELS 3 Zrotation Yrotation Xrotation
					JOINT RightArm
					{
						OFFSET -3.136600 1.374050 -0.404650
						CHANNELS 3 Zrotation Yrotation Xrotation
						JOINT RightForeArm
						{
							OFFSET -5.241900 -0.000000 -0.000000
							CHANNELS 3 Zrotation Yrotation Xrotation
							JOINT RightHand
							{
								OFFSET -3.444170 -0.000000 -0.000000
								CHANNELS 3 Zrotation Yrotation Xrotation
								JOINT RightFingerBase
								{
									OFFSET 0.000000 0.000000 0.000000
									CHANNELS 3 Zrotation Yrotation Xrotation
									JOINT RightHandIndex1
									{
										OFFSET -0.622530 -0.000000 -0.000000
										CHANNELS 3 Zrotation Yrotation Xrotation
										End Site
										{
											OFFSET 0.000000 0.000000 0.000000
										}
									}
								}
								JOINT RThumb
								{
									OFFSET 0.000000 0.000000 0.000000
									CHANNELS 3 Zrotation Yrotation Xrotation
									End Site
									{
										OFFSET 0.000000 0.000000 0.000000
									}
								}
							}
						}
					}
				}
			}
		}
	}
}
MOTION
Frames: 11
Frame Time: 0.033333
1.430627 19.326797 -19.939873 -1.861925 -0.530312 28.441371 -20.075051 -1.485499 4.582452 1.868987 -2.319151 -31.510905 -2.740878 7.212565 -12.309680 2.638163 13.198167 39.989366 -0.255989 0.079627 -38.272364 19.661135 4.185289 -0.168790 0.238375 -4.515136 -36.205736 6.539726 13.592088 16.053320 0.265840 -13.974428 27.705658 -0.441495 -0.014464 -41.526714 -0.699498 2.986224 -6.836025 2.196212 -1.112498 -3.614858 -3.441194 -3.676692 3.293398 9.885821 -15.771683 -18.322797 -1.055413 -0.139876 -2.322783 -0.024691 0.058673 0.042763 -4.603845 24.382350 -1.761161 -72.121215 27.663340 -3.927357 7.708759 -43.926907 -5.129341 8.726476 -1.311007 -0.072021 -0.293975 0.017263 0.010241 0.033196 0.026226 -0.058835 0.049321 0.061588 -0.034791 -2.768308 -5.575500 1.842348 63.721284 -15.585992 -9.752067 1.450718 66.059929 1.040974 -5.740013 8.390438 -0.478020 0.047741 -0.264550 0.070182 0.085875 0.005311 -0.102831 0.093135 0.027857 0.088980 
1.428111 19.053787 -19.854872 0.062260 -0.966643 30.805696 -19.854359 -3.312899 4.051097 -0.792283 -1.594593 -34.944095 -1.889546 5.388015 -8.097039 1.579233 13.306119 34.657936 -0.575149 0.091194 -35.548966 17.634906 4.256546 0.468637 0.031062 -3.259981 -36.701810 4.895543 13.462130 12.204892 -0.098212 -11.682830 23.324501 -0.109411 -0.024259 -40.200446 -2.922714 4.364016 -7.083151 2.275855 -1.414682 -3.462599 -3.918894 -4.026981 4.822368 10.180309 -15.794258 -18.223763 -1.178405 -0.142021 -2.542858 -0.013651 0.072738 0.025729 -4.434773 23.521073 -2.199614 -71.015435 33.119617 -0.292509 6.674802 -46.144829 -4.949402 8.975458 -1.383960 -0.083470 -0.265188 0.019083 -0.002600 0.031136 0.024745 -0.059737 0.053805 0.064571 -0.033481 1.338639 -8.106922 -1.461883 62.321465 -14.633078 -6.903049 2.191554 68.671026 2.296950 -5.819044 7.942983 -0.445382 0.169573 -0.320183 0.055472 0.099128 -0.006054 -0.097464 0.087372 0.034182 0.089043 
1.426395 18.691493 -19.753742 -0.188130 -2.458492 33.957081 -17.992906 -4.302709 3.583598 -2.885347 -2.690232 -39.470118 0.398116 4.786676 -3.530594 -0.516964 14.361339 26.399661 -0.979895 0.170674 -31.870832 16.078720 5.245422 1.017371 1.177164 -1.802454 -38.462216 3.920533 13.921367 10.014844 -0.149232 -9.103077 17.503927 0.169751 -0.070218 -41.171205 -3.869033 6.360076 -9.345303 3.079358 -1.850076 -3.760947 -4.302629 -3.766164 5.118307 9.657098 -15.927613 -18.252812 -1.502732 -0.165062 -2.456220 -0.008258 0.078954 0.025929 -5.193171 22.655858 -2.058784 -66.339430 34.443578 5.303974 9.831769 -50.559560 -7.176662 10.146374 -1.695392 -0.158186 -0.210582 0.036224 -0.018616 0.027394 0.019492 -0.053155 0.045981 0.068414 -0.037112 4.447244 -10.828151 1.392587 61.220759 -10.847046 -5.913040 2.581238 67.730577 2.364033 -6.206001 7.177202 -0.438284 0.252188 -0.464843 0.045075 0.111361 -0.019644 -0.086432 0.065720 0.026362 0.072852 
1.425723 18.255651 -19.630527 0.390759 -2.951995 35.966133 -16.471206 -4.331982 3.621098 -4.720167 -5.225984 -45.297287 2.257029 4.163881 5.373950 -1.227756 13.519441 15.810094 -1.548076 0.228629 -30.039471 13.910232 5.098209 1.489826 2.118129 0.910322 -42.053142 3.078737 12.373152 13.574753 -0.790817 -6.166175 8.206208 0.664136 -0.122448 -41.759731 -3.534370 4.313401 -9.923226 2.650329 -1.780458 -3.463253 -4.010917 -2.418087 5.152511 9.665290 -15.631779 -17.995685 -1.511703 -0.162159 -2.614369 -0.015488 0.077812 0.025398 -5.309365 22.479889 -1.749404 -65.378485 32.698284 7.673474 11.170225 -53.419763 -8.710915 10.334855 -1.715978 -0.169841 -0.110830 0.196903 -0.026096 0.020391 0.012153 -0.047401 0.042330 0.076140 -0.039270 4.823408 -11.257732 0.167719 62.567022 -10.294771 -3.978188 2.958682 65.018043 2.079548 -6.006259 6.687921 -0.388785 0.264935 -0.424495 0.033470 0.126980 -0.024408 -0.081970 0.062916 0.014330 0.069045 
1.447557 17.769022 -19.461002 0.358184 -2.679079 37.405975 -14.863273 -2.878567 4.090931 -5.400493 -10.098771 -50.226411 4.871504 4.959381 13.565464 -0.746488 11.575556 5.256433 -2.162933 0.324262 -28.734535 12.505071 4.070431 1.780142 2.161708 3.797394 -48.651544 5.294597 9.719892 24.661671 -1.389773 -4.509101 -2.709184 1.251316 -0.201969 -41.409005 -3.791777 5.577412 -10.552143 2.225355 -1.298385 -4.198486 -3.795467 -2.561956 5.008281 9.560505 -15.240514 -17.294902 -1.644100 -0.146970 -2.437577 -0.023134 0.082686 0.018513 -3.712647 20.123247 -1.188053 -64.669718 30.334226 10.043583 11.731211 -57.285559 -10.034600 10.627453 -2.688543 -0.276192 -0.164275 0.133934 -0.027927 0.005707 -0.004871 -0.038601 0.027191 0.072503 -0.036691 5.830107 -13.936076 -0.650478 64.416381 -9.903088 -3.933366 1.568698 64.142865 0.777779 -6.596283 6.940851 -0.424130 0.219753 -0.381249 0.029108 0.134299 -0.024761 -0.078771 0.062866 0.000533 0.063362 
1.450018 17.304165 -19.265074 -0.154526 -3.464796 37.967888 -13.012149 -1.654932 4.460963 -7.108505 -12.184177 -55.661284 6.815873 5.408591 23.669707 0.005721 9.786684 -4.309833 -2.727318 0.401192 -28.037417 11.886456 2.848824 0.824215 2.370616 6.476813 -54.356956 7.533816 6.614281 38.122441 -2.247356 -3.330806 -9.896625 1.888879 -0.260765 -40.857835 -4.094164 5.730788 -11.568680 2.069596 -1.782874 -3.256340 -4.336241 -2.447751 3.583575 9.206994 -14.822848 -15.973829 -1.890831 -0.151544 -2.307719 -0.038769 0.090075 0.014926 -2.751221 19.549232 0.239543 -65.120742 26.809139 9.551549 10.849511 -61.297191 -9.628833 11.209955 -3.460080 -0.361736 -0.098014 0.147526 -0.024293 -0.007991 -0.024278 -0.033522 0.008754 0.071981 -0.031157 6.937800 -13.346582 0.088123 66.259651 -10.763260 -3.211940 1.016283 64.358948 0.194197 -7.099458 7.393430 -0.478056 0.132549 -0.318648 0.025401 0.141598 -0.022626 -0.074123 0.069024 -0.008804 0.061537 
1.456251 16.896131 -19.038441 -0.550614 -2.579856 38.535020 -11.054573 -0.937713 4.102816 -8.391790 -14.148871 -58.303463 7.684792 5.123631 31.032080 0.703634 8.802196 -12.062261 -3.159027 0.456872 -27.551384 12.688036 2.596165 0.763714 3.126203 7.307526 -59.187429 6.630763 5.165412 47.991155 -2.830479 -2.777036 -14.883154 2.229730 -0.266696 -40.515845 -3.555813 6.640302 -13.744500 0.922849 -0.961593 -2.550178 -4.602374 -4.034379 3.732069 8.789784 -14.387128 -15.094372 -2.188579 -0.171397 -2.240909 -0.053350 0.095771 0.006355 -2.330499 18.289534 -0.073488 -66.001148 21.896875 10.463080 8.185096 -64.002105 -7.786001 12.536977 -4.103676 -0.494569 -0.169262 0.393688 -0.027118 -0.012120 -0.039965 -0.025415 -0.015273 0.056149 -0.020907 8.180049 -15.218809 1.469501 67.800259 -9.148687 -1.381735 1.795096 66.619120 0.800558 -7.972279 8.452163 -0.613775 0.142598 -0.255693 0.016765 0.147017 -0.023516 -0.076671 0.057253 -0.013865 0.053486 
1.460642 16.580335 -18.803251 1.243824 -1.376052 38.563607 -11.122883 -0.232392 4.878583 -9.968022 -15.930725 -59.948229 7.088907 4.159683 35.455221 1.850552 7.463445 -17.239101 -3.558241 0.548607 -27.392399 11.674434 1.251489 0.970363 3.622140 8.270694 -61.992138 4.980522 4.280830 54.245558 -3.111456 -3.060498 -18.494010 2.758797 -0.322089 -40.767114 -5.300647 5.616712 -14.131517 1.390209 -0.638894 -3.374416 -5.056880 -3.836376 3.210392 8.568828 -13.656261 -14.481866 -2.735050 -0.227845 -2.023324 -0.066111 0.105574 0.005838 -1.918909 15.746326 0.385138 -67.564426 15.820048 9.623513 6.781903 -65.171805 -6.506176 13.858055 -4.530897 -0.609510 -0.190996 0.385670 -0.026860 -0.016885 -0.058911 -0.022298 -0.040359 0.039521 -0.007947 9.312213 -16.411448 2.912117 68.571022 -6.874223 0.575195 2.370044 68.377238 2.251052 -8.779662 9.208808 -0.741339 0.153359 -0.263787 0.007140 0.146362 -0.020181 -0.078405 0.036964 -0.015576 0.038820 
1.456356 16.368980 -18.571995 1.738512 -0.162603 36.571368 -11.174479 0.551199 6.508907 -8.884722 -16.956938 -59.830674 6.322108 5.702666 38.149225 2.937831 6.099310 -21.145807 -3.881742 0.638442 -28.026018 11.360396 0.901553 3.589964 3.347233 9.433808 -63.632799 2.278727 2.383801 57.716426 -3.396286 -3.334786 -20.252564 3.356826 -0.411628 -41.442947 -5.634466 5.264500 -14.212049 0.987729 -1.901676 -2.868824 -4.040517 -3.237777 3.045223 8.202338 -12.243639 -12.991616 -3.052320 -0.256004 -1.619555 -0.069488 0.094218 0.012537 -3.192611 12.490016 1.108189 -67.429673 7.180562 11.207199 6.310243 -61.999129 -5.677459 14.932375 -5.088931 -0.725276 -0.170747 0.460666 -0.024745 -0.031033 -0.050644 -0.009216 -0.050858 0.036054 -0.006050 10.596496 -15.663281 2.641807 67.814475 -3.479262 1.804043 2.239224 64.446018 2.367314 -9.150704 10.018741 -0.840655 0.154532 -0.322169 0.003063 0.144784 -0.019250 -0.082410 0.029164 -0.008655 0.025034 
1.445935 16.259674 -18.331295 3.123973 0.838601 35.706279 -12.062625 0.935295 6.648794 -8.468970 -17.831991 -58.972430 5.568107 6.447205 40.508541 3.644518 5.652843 -22.810160 -4.237835 0.712898 -28.354819 10.959578 1.347845 5.090162 2.422413 8.807955 -65.630553 0.945278 1.009911 61.485605 -3.122510 -4.788435 -19.473320 3.881953 -0.500972 -42.206884 -5.722780 3.104214 -13.961816 0.654456 -1.406360 -4.030695 -4.621326 -2.733977 3.641724 8.592503 -10.575624 -11.800525 -3.198210 -0.261701 -1.319742 -0.070299 0.088101 0.030487 -3.775790 9.305700 0.883201 -67.006699 -3.788113 13.230487 6.088387 -57.663351 -5.179311 15.970771 -5.380644 -0.817197 -0.140396 0.411892 -0.021288 -0.041606 -0.042838 0.003766 -0.059256 0.034541 -0.010840 13.408749 -13.401761 2.457920 67.247572 2.557268 1.204790 1.806813 59.496751 2.058588 -9.636234 10.832394 -0.942540 0.183383 -0.369968 0.000347 0.132882 -0.022104 -0.083007 0.021994 -0.002010 0.014031 
1.437572 16.269666 -18.049793 3.808125 0.588978 33.744762 -12.985416 1.065244 6.540959 -7.921704 -16.149642 -57.310294 4.601445 9.025348 42.647824 4.356332 4.365265 -22.006550 -5.082671 0.810361 -29.940011 11.011381 2.222212 6.339487 0.080648 9.231505 -65.622487 -0.668667 -1.655185 64.552421 -2.371327 -6.918560 -15.294645 4.580579 -0.648235 -42.082970 -6.084722 2.106733 -13.146882 1.195615 -1.192380 -4.230743 -4.396207 -2.853109 2.441099 8.493851 -8.582788 -9.579196 -3.460599 -0.271673 -0.761341 -0.068139 0.076994 0.044611 -4.287071 6.524487 1.522393 -66.239190 -15.233796 13.762420 6.183918 -53.159523 -5.732321 17.476918 -5.981795 -0.986350 -0.145612 0.429596 -0.006845 -0.049713 -0.038007 0.015635 -0.062333 0.034798 -0.024165 13.669767 -9.952110 3.737239 65.978244 10.274652 -0.919761 -0.616324 54.378265 0.356325 -10.696157 11.355148 -1.121301 0.164896 -0.448784 -0.004201 0.121367 -0.015047 -0.074991 0.022686 0.006830 0.000233 
